<svg id="Layer_1" data-name="Layer 1" xmlns="http://www.w3.org/2000/svg" viewBox="0 0 9 6"><defs><style>.cls-1{fill:#fff;}</style></defs><title>Artboard 1 copy 5</title><path class="cls-1" d="M4.69.49H7.33A.66.66,0,0,1,8,.85c.08.27-.21.52-.61.54H2.07A.65.65,0,0,1,1.4,1C1.33.76,1.62.51,2,.5H4.69Z"/><path class="cls-1" d="M4.69,2.3H7.33A.65.65,0,0,1,8,2.66c.08.26-.21.52-.61.53H2.07a.65.65,0,0,1-.67-.36c-.07-.26.22-.52.62-.53H4.69Z"/><path class="cls-1" d="M4.69,4.11H7.33A.65.65,0,0,1,8,4.47c.08.26-.21.51-.61.53H2.07a.65.65,0,0,1-.67-.36c-.07-.27.22-.52.62-.53a2.08,2.08,0,0,1,.25,0Z"/></svg>