<svg id="Layer_1" data-name="Layer 1" xmlns="http://www.w3.org/2000/svg" viewBox="0 0 495 453"><defs><style>.cls-1{fill:#fff;stroke:#fff;stroke-miterlimit:10;}</style></defs><title>Artboard 1 copy</title><path class="cls-1" d="M216.19,370.57H102.78A4.06,4.06,0,0,1,99,365.45h0a4,4,0,0,1,3.79-3.09h8.15q19.59,0,27.18-4.89t11.19-19.41l3.19-11.67,34.37-131.93,2.39-11q2.4-8.21,2.4-12.63,0-8.21-8.39-8.2-6.39,0-18.78,5l-33.17,14.2-1.08-3.77a4.2,4.2,0,0,1,1.84-4.78l4.84-2.81,44.75-24.62q28.93-16.05,49.84-29.4a3.67,3.67,0,0,1,2-.58h3.57a4.06,4.06,0,0,1,3.67,5.52Q231.5,146.82,220,191.62L184.86,326.39q-4,16.41-4,23,0,7.89,5,10.41c3.33,1.69,31.85,3.43,42.51,3.43h0c2.55,0-7.76,1.62-8.39,4.21h0A4,4,0,0,1,216.19,370.57Z"/><path class="cls-1" d="M33.8,425.39l3.64-8.23a8.36,8.36,0,0,1,10.27-4.82q27.57,9.48,59.71,9.47,42.42,0,75.3-21.26t58.78-65a324.09,324.09,0,0,0,16.51-33q8.1-18.54,20.08-52,10-27.73,19.59-59.85T313.88,132q6.14-24.55,11.87-54.28A9,9,0,0,1,331,71.14l30.34-12.67-2.27-.3-6.47-.91a1240.71,1240.71,0,0,0-141.2-8.44q-34.66,0-58.3,4.22T112.93,66.61Q90.25,79.88,90.26,100.68q0,38.66,94.22,46.9c7.43.65,10.62,10.24,5.15,15.56L185,167.69c-1.73,1.69,2.49-6.2.13-6.37-19.17-1.4-42.53,3.94-56.93-1.54q-23-8.75-35.46-23.21T80.22,103.7q0-37.1,50.19-59.7Q172.84,25,255.1,25q22.34,0,57.16,2.41t72.05,6.18q37.24,3.78,61.86,8l5.83.91L440.32,64.24a8.45,8.45,0,0,1-8.72,4.48h0q-28.5-4.81-66.39-9.95l-2.27-.3-1,4.22-1,4.22q-25.59,108.85-52.79,179.26T247,358.79Q213,401,167.82,420T61.11,439q-10.09,0-20.19-.82C35,437.69,31.29,431.08,33.8,425.39Z"/></svg>