<svg id="Layer_1" data-name="Layer 1" xmlns="http://www.w3.org/2000/svg" viewBox="0 0 29 23"><defs><style>.cls-1{fill:#fff;}</style></defs><title>Artboard 1 copy 3</title><path class="cls-1" d="M16.74,11.74l.14.13-1.32,1.2,0,0L15.45,13A5.31,5.31,0,0,1,8.32,11.8a4.83,4.83,0,0,1,.59-6.39A5.31,5.31,0,0,1,15.59,5,4.85,4.85,0,0,1,16.74,11.74ZM8.2,8.94a4.23,4.23,0,0,0,4.31,4.14,4.23,4.23,0,0,0,4.3-4.16,4.24,4.24,0,0,0-4.34-4.13A4.23,4.23,0,0,0,8.2,8.94Z"/><path class="cls-1" d="M15.81,13.36l1.37-1.25c.25.21.55.43.83.68,1.07.93,2.15,1.85,3.2,2.8a3.69,3.69,0,0,1,.64.82.87.87,0,0,1-.17,1.16A1.22,1.22,0,0,1,21,18a1.24,1.24,0,0,1-.65-.14,4.12,4.12,0,0,1-1.19-1l-3.23-3.44Z"/><path class="cls-1" d="M8.66,8.86a3.63,3.63,0,0,1,2-3.15c.18-.11.27-.07.32.11s-.06.16-.15.21a3.26,3.26,0,0,0-.71,5.3c.11.11.13.2,0,.31s-.2,0-.28-.05A3.65,3.65,0,0,1,8.66,8.86Z"/></svg>